<svg xmlns="http://www.w3.org/2000/svg" xmlns:xlink="http://www.w3.org/1999/xlink" width="500" zoomAndPan="magnify" viewBox="0 0 375 374.999991" height="500" preserveAspectRatio="xMidYMid meet" version="1.2"><defs><clipPath id="936ef4d490"><path d="M 23.835938 23.835938 L 350.835938 23.835938 L 350.835938 350.835938 L 23.835938 350.835938 Z M 23.835938 23.835938 "/></clipPath><clipPath id="57be7ea596"><path d="M 145 33 L 350.835938 33 L 350.835938 228 L 145 228 Z M 145 33 "/></clipPath></defs><g id="d91265182e"><g clip-rule="nonzero" clip-path="url(#936ef4d490)"><path style=" stroke:none;fill-rule:nonzero;fill:#d2e7ec;fill-opacity:1;" d="M 350.855469 187.324219 C 350.855469 187.710938 350.855469 188.136719 350.828125 188.527344 C 350.777344 196.582031 350.148438 204.503906 348.9375 212.246094 C 343.246094 249.652344 324.882812 282.863281 298.363281 307.367188 L 298.339844 307.367188 C 269.167969 334.355469 230.160156 350.855469 187.324219 350.855469 C 166.363281 350.855469 146.320312 346.921875 127.933594 339.703125 C 125.652344 338.84375 123.394531 337.894531 121.160156 336.902344 C 90.050781 323.125 64.078125 299.941406 46.792969 270.925781 C 38.113281 256.34375 31.605469 240.285156 27.773438 223.238281 C 25.179688 211.667969 23.8125 199.648438 23.8125 187.324219 C 23.8125 183 23.972656 178.71875 24.339844 174.5 C 27.097656 138.632812 41.449219 106.023438 63.640625 80.398438 C 72.183594 70.527344 81.890625 61.6875 92.546875 54.113281 L 92.574219 54.085938 C 95.457031 52.042969 98.417969 50.050781 101.464844 48.1875 C 120.039062 36.695312 141.074219 28.796875 163.605469 25.519531 C 171.34375 24.386719 179.269531 23.8125 187.324219 23.8125 C 206.523438 23.8125 224.988281 27.140625 242.09375 33.234375 C 269.746094 43.042969 293.929688 60.09375 312.453125 82.074219 C 336.433594 110.515625 350.855469 147.242188 350.855469 187.324219 "/></g><path style=" stroke:none;fill-rule:nonzero;fill:#70c573;fill-opacity:1;" d="M 209.167969 315.296875 C 209.167969 315.296875 200.265625 302.878906 201.257812 281.585938 C 202.242188 260.296875 200.265625 256.75 186.421875 252.3125 C 172.582031 247.875 158.734375 239.886719 156.757812 229.246094 C 154.78125 218.59375 166.644531 193.757812 166.644531 193.757812 C 166.644531 193.757812 182.46875 183.113281 196.3125 184.886719 C 210.15625 186.660156 233.894531 186.660156 244.765625 196.421875 C 255.648438 206.175781 262.5625 228.355469 267.507812 229.246094 C 272.449219 230.132812 260.585938 268.277344 258.609375 274.492188 C 256.632812 280.699219 250.703125 305.542969 245.757812 315.296875 C 240.8125 325.058594 235.867188 333.929688 231.910156 333.929688 C 227.957031 333.929688 210.15625 335.707031 209.167969 315.296875 "/><path style=" stroke:none;fill-rule:nonzero;fill:#70c573;fill-opacity:1;" d="M 132.335938 313.269531 C 131.472656 317.460938 129.929688 328.613281 127.933594 339.703125 C 125.652344 338.84375 123.394531 337.894531 121.160156 336.902344 C 90.050781 323.125 64.078125 299.941406 46.792969 270.925781 C 38.113281 256.34375 31.605469 240.285156 27.773438 223.238281 C 33.804688 220.03125 41.363281 217.148438 48.789062 217.28125 C 65.050781 217.597656 67.097656 221.59375 80.945312 231.53125 C 94.769531 241.476562 105.605469 266.289062 111.457031 266.714844 C 117.304688 267.105469 133.835938 305.8125 132.335938 313.269531 "/><g clip-rule="nonzero" clip-path="url(#57be7ea596)"><path style=" stroke:none;fill-rule:nonzero;fill:#70c573;fill-opacity:1;" d="M 350.855469 187.324219 C 350.855469 187.710938 350.855469 188.136719 350.828125 188.527344 C 350.777344 196.582031 350.148438 204.503906 348.9375 212.246094 C 341.597656 201.464844 333.671875 185.277344 329.636719 182.445312 C 323.417969 178.058594 300.625 175.441406 308.910156 186.824219 C 317.203125 198.238281 320.710938 198.238281 320.710938 198.238281 C 320.710938 198.238281 304.765625 230.34375 293.382812 227.230469 C 281.972656 224.132812 259.175781 182.445312 259.175781 182.445312 C 245.714844 171.847656 271.609375 164.03125 271.609375 164.03125 C 271.609375 164.03125 279.898438 156.789062 267.460938 148.496094 C 255.027344 140.210938 245.714844 157.8125 237.425781 155.738281 C 229.140625 153.664062 227.0625 161.953125 224.46875 170.246094 C 221.871094 178.53125 214.3125 183.496094 212.554688 170.246094 C 210.773438 156.996094 191.832031 165.082031 185.617188 165.082031 C 179.398438 165.082031 166.96875 186.824219 155.550781 186.824219 C 144.167969 186.824219 144.167969 171.292969 146.242188 164.03125 C 148.316406 156.789062 165.917969 149.519531 182.496094 148.496094 C 199.074219 147.453125 183.546875 132.941406 188.714844 130.132812 C 193.90625 127.300781 209.441406 131.917969 224.46875 138.136719 C 239.472656 144.355469 255.027344 129.84375 268.511719 130.132812 C 281.972656 130.425781 239.5 119.484375 252.957031 109.121094 C 266.445312 98.761719 237.425781 89.425781 238.449219 78.035156 C 239.5 66.628906 230.160156 53.164062 230.160156 40.734375 C 230.160156 36.773438 234.570312 34.199219 242.09375 33.234375 C 269.746094 43.042969 293.929688 60.09375 312.453125 82.074219 C 336.433594 110.515625 350.855469 147.242188 350.855469 187.324219 "/></g><path style=" stroke:none;fill-rule:nonzero;fill:#70c573;fill-opacity:1;" d="M 119.371094 132.046875 C 119.371094 132.046875 125.375 139.140625 130.003906 132.046875 C 134.640625 124.945312 135.296875 119.285156 132.402344 118.777344 C 129.492188 118.253906 112.25 129.089844 119.371094 132.046875 "/><path style=" stroke:none;fill-rule:nonzero;fill:#70c573;fill-opacity:1;" d="M 84.378906 132.046875 C 84.378906 132.046875 96.726562 128.890625 99.46875 122.71875 C 102.21875 116.535156 118 119.285156 122.113281 113.105469 C 126.234375 106.929688 136.886719 104.730469 139.457031 98.964844 C 142.011719 93.210938 144.800781 84.292969 134.144531 83.597656 C 123.488281 82.917969 112.984375 78.121094 113.09375 83.597656 C 113.195312 89.097656 110.453125 87.71875 100.847656 91.152344 C 91.242188 94.582031 80.945312 89.632812 80.945312 98.964844 C 80.945312 108.308594 83.695312 118.75 83.695312 118.75 C 83.695312 118.75 78.203125 126.285156 84.378906 132.046875 "/><path style=" stroke:none;fill-rule:nonzero;fill:#70c573;fill-opacity:1;" d="M 163.605469 25.519531 C 163.605469 25.519531 145.21875 50.074219 141.808594 50.730469 C 138.375 51.382812 127.855469 58.59375 125.910156 65.816406 C 123.945312 73.035156 110.167969 77.617188 99.679688 73.035156 C 89.1875 68.4375 86.773438 63.375 92.546875 54.113281 L 92.574219 54.085938 C 95.457031 52.042969 98.417969 50.050781 101.464844 48.1875 C 120.039062 36.695312 141.074219 28.796875 163.605469 25.519531 "/><path style=" stroke:none;fill-rule:nonzero;fill:#70c573;fill-opacity:1;" d="M 60.542969 122.003906 C 58.804688 127.25 59.230469 133.367188 53.5625 135.195312 C 47.867188 137.035156 50.050781 143.855469 46.117188 152.589844 C 42.574219 160.464844 27.386719 172.214844 24.339844 174.5 C 27.097656 138.632812 41.449219 106.023438 63.640625 80.398438 C 65.945312 87.402344 65.050781 98.964844 67.097656 102.746094 C 70.167969 108.4375 62.292969 116.753906 60.542969 122.003906 "/></g></svg>