<svg width="100" height="100" viewBox="0 0 100 100" fill="none" xmlns="http://www.w3.org/2000/svg">
<circle cx="50" cy="50" r="50" fill="#D2E7EC"/>
<path d="M50 48.5C48.0109 48.5 46.1032 47.7098 44.6967 46.3033C43.2902 44.8968 42.5 42.9891 42.5 41C42.5 39.0109 43.2902 37.1032 44.6967 35.6967C46.1032 34.2902 48.0109 33.5 50 33.5C51.9891 33.5 53.8968 34.2902 55.3033 35.6967C56.7098 37.1032 57.5 39.0109 57.5 41C57.5 41.9849 57.306 42.9602 56.9291 43.8701C56.5522 44.7801 55.9997 45.6069 55.3033 46.3033C54.6069 46.9997 53.7801 47.5522 52.8701 47.9291C51.9602 48.306 50.9849 48.5 50 48.5ZM50 20C44.4305 20 39.089 22.2125 35.1508 26.1508C31.2125 30.089 29 35.4305 29 41C29 56.75 50 80 50 80C50 80 71 56.75 71 41C71 35.4305 68.7875 30.089 64.8492 26.1508C60.911 22.2125 55.5695 20 50 20Z" fill="#0189BB"/>
</svg>
