<svg width="100" height="100" viewBox="0 0 100 100" fill="none" xmlns="http://www.w3.org/2000/svg">
<circle cx="50" cy="50" r="50" fill="#D2E7EC"/>
<path d="M77.7719 33.3167C77.5581 32.7962 77.195 32.3507 76.7284 32.0363C76.2618 31.7218 75.7126 31.5525 75.1499 31.5497H69.4499V25.8497C69.4471 25.2871 69.2778 24.7378 68.9634 24.2712C68.6489 23.8046 68.2034 23.4415 67.6829 23.2277C67.1639 23.0095 66.5919 22.9498 66.039 23.0563C65.4861 23.1629 64.9772 23.4308 64.5764 23.8262L56.0264 32.3762C55.7623 32.6425 55.5533 32.9583 55.4115 33.3056C55.2697 33.6528 55.1978 34.0246 55.1999 34.3997V41.7812L48.9014 48.0512C48.6343 48.3162 48.4223 48.6314 48.2776 48.9787C48.1329 49.326 48.0584 49.6985 48.0584 50.0747C48.0584 50.4509 48.1329 50.8235 48.2776 51.1708C48.4223 51.5181 48.6343 51.8333 48.9014 52.0982C49.1664 52.3653 49.4816 52.5774 49.8289 52.7221C50.1762 52.8667 50.5487 52.9412 50.9249 52.9412C51.3012 52.9412 51.6737 52.8667 52.021 52.7221C52.3683 52.5774 52.6835 52.3653 52.9484 52.0982L59.2184 45.7997H66.5999C66.975 45.8019 67.3468 45.73 67.6941 45.5882C68.0413 45.4463 68.3571 45.2374 68.6234 44.9732L77.1734 36.4232C77.5689 36.0224 77.8368 35.5135 77.9433 34.9606C78.0498 34.4078 77.9902 33.8357 77.7719 33.3167Z" fill="#0189BB"/>
<path d="M49.5 80C41.9413 80 34.6922 76.9973 29.3475 71.6525C24.0027 66.3078 21 59.0587 21 51.5C21 43.9413 24.0027 36.6922 29.3475 31.3475C34.6922 26.0027 41.9413 23 49.5 23H50.697C51.0713 23.0337 51.4352 23.1408 51.7681 23.3151C52.101 23.4894 52.3963 23.7277 52.6371 24.0161C52.878 24.3046 53.0596 24.6377 53.1717 24.9963C53.2838 25.355 53.3242 25.7322 53.2905 26.1065C53.2568 26.4808 53.1497 26.8447 52.9754 27.1776C52.8011 27.5105 52.5628 27.8058 52.2744 28.0466C51.9859 28.2875 51.6528 28.4691 51.2942 28.5812C50.9355 28.6933 50.5583 28.7337 50.184 28.7H49.5C44.9906 28.7 40.5824 30.0372 36.833 32.5425C33.0836 35.0478 30.1612 38.6087 28.4355 42.7748C26.7099 46.941 26.2584 51.5253 27.1381 55.9481C28.0178 60.3708 30.1893 64.4334 33.378 67.622C36.5666 70.8107 40.6292 72.9822 45.0519 73.8619C49.4747 74.7416 54.059 74.2901 58.2252 72.5645C62.3913 70.8388 65.9522 67.9164 68.4575 64.167C70.9628 60.4176 72.3 56.0094 72.3 51.5C72.3142 51.2722 72.3142 51.0438 72.3 50.816C72.2648 50.4414 72.304 50.0636 72.4155 49.7043C72.527 49.345 72.7086 49.0113 72.9497 48.7225C73.1908 48.4337 73.4867 48.1955 73.8203 48.0217C74.1539 47.8478 74.5187 47.7417 74.8935 47.7095C75.2681 47.6743 75.6459 47.7135 76.0052 47.825C76.3645 47.9365 76.6982 48.1181 76.987 48.3592C77.2758 48.6003 77.514 48.8962 77.6878 49.2298C77.8617 49.5634 77.9678 49.9282 78 50.303C78 50.702 78 51.101 78 51.5C78 59.0587 74.9973 66.3078 69.6525 71.6525C64.3078 76.9973 57.0587 80 49.5 80ZM66.258 54.92C66.4092 54.1641 66.2539 53.3792 65.8263 52.7378C65.3987 52.0964 64.7339 51.6512 63.978 51.5C63.2221 51.3488 62.4372 51.5041 61.7958 51.9317C61.1544 52.3593 60.7092 53.0241 60.558 53.78C60.1487 55.8045 59.197 57.6798 57.8046 59.2054C56.4123 60.731 54.6317 61.8498 52.6529 62.442C50.6742 63.0343 48.5717 63.0778 46.5702 62.5679C44.5686 62.0581 42.7432 61.0141 41.2889 59.5473C39.8346 58.0806 38.8061 56.2464 38.3133 54.2405C37.8205 52.2347 37.882 50.1327 38.491 48.1591C39.1001 46.1854 40.2339 44.4144 41.7714 43.0351C43.3088 41.6558 45.1921 40.7201 47.22 40.328C47.9759 40.1768 48.6407 39.7316 49.0683 39.0902C49.4959 38.4488 49.6512 37.6639 49.5 36.908C49.3488 36.1521 48.9036 35.4873 48.2622 35.0597C47.6208 34.6321 46.8359 34.4768 46.08 34.628C43.0536 35.2466 40.2513 36.6734 37.9707 38.7568C35.6902 40.8403 34.0166 43.5026 33.1277 46.4609C32.2388 49.4192 32.1678 52.563 32.9223 55.5584C33.6768 58.5538 35.2286 61.2889 37.4129 63.4731C39.5971 65.6574 42.3322 67.2092 45.3276 67.9637C48.323 68.7182 51.4668 68.6472 54.4251 67.7583C57.3834 66.8694 60.0457 65.1958 62.1292 62.9153C64.2126 60.6347 65.6394 57.8324 66.258 54.806V54.92Z" fill="#0189BB"/>
</svg>
