<svg width="72" height="72" viewBox="0 0 72 72" fill="none" xmlns="http://www.w3.org/2000/svg">
<path d="M39.084 6C42.459 6.009 44.172 6.027 45.651 6.069L46.233 6.09C46.905 6.114 47.568 6.144 48.369 6.18C51.561 6.33 53.739 6.834 55.65 7.575C57.63 8.337 59.298 9.369 60.966 11.034C62.4921 12.5332 63.6726 14.3474 64.425 16.35C65.166 18.261 65.67 20.439 65.82 23.634C65.856 24.432 65.886 25.095 65.91 25.77L65.928 26.352C65.973 27.828 65.991 29.541 65.997 32.916L66 35.154V39.084C66.0073 41.2722 65.9843 43.4604 65.931 45.648L65.913 46.23C65.889 46.905 65.859 47.568 65.823 48.366C65.673 51.561 65.163 53.736 64.425 55.65C63.6726 57.6526 62.4921 59.4668 60.966 60.966C59.4668 62.4921 57.6526 63.6726 55.65 64.425C53.739 65.166 51.561 65.67 48.369 65.82L46.233 65.91L45.651 65.928C44.172 65.97 42.459 65.991 39.084 65.997L36.846 66H32.919C30.7298 66.0077 28.5406 65.9847 26.352 65.931L25.77 65.913C25.0578 65.886 24.3458 65.855 23.634 65.82C20.442 65.67 18.264 65.166 16.35 64.425C14.3485 63.6722 12.5353 62.4917 11.037 60.966C9.50983 59.4671 8.32832 57.6529 7.575 55.65C6.834 53.739 6.33 51.561 6.18 48.366L6.09 46.23L6.075 45.648C6.0197 43.4604 5.99469 41.2722 6 39.084V32.916C5.99169 30.7278 6.0137 28.5396 6.066 26.352L6.087 25.77C6.111 25.095 6.141 24.432 6.177 23.634C6.327 20.439 6.831 18.264 7.572 16.35C8.32708 14.3466 9.51067 12.5323 11.04 11.034C12.5375 9.50865 14.3496 8.32822 16.35 7.575C18.264 6.834 20.439 6.33 23.634 6.18C24.432 6.144 25.098 6.114 25.77 6.09L26.352 6.072C28.5396 6.0187 30.7278 5.9957 32.916 6.003L39.084 6ZM36 21C32.0217 21 28.2064 22.5804 25.3934 25.3934C22.5804 28.2064 21 32.0218 21 36C21 39.9782 22.5804 43.7936 25.3934 46.6066C28.2064 49.4196 32.0217 51 36 51C39.9782 51 43.7936 49.4196 46.6066 46.6066C49.4196 43.7936 51 39.9782 51 36C51 32.0218 49.4196 28.2064 46.6066 25.3934C43.7936 22.5804 39.9782 21 36 21ZM36 27C37.1819 26.9998 38.3523 27.2324 39.4443 27.6845C40.5363 28.1366 41.5285 28.7994 42.3644 29.635C43.2003 30.4706 43.8634 31.4626 44.3158 32.5545C44.7683 33.6463 45.0013 34.8166 45.0015 35.9985C45.0017 37.1804 44.7691 38.3508 44.317 39.4428C43.8649 40.5348 43.2021 41.527 42.3665 42.3629C41.5309 43.1988 40.5389 43.8619 39.447 44.3143C38.3552 44.7668 37.1849 44.9998 36.003 45C33.616 45 31.3269 44.0518 29.639 42.364C27.9512 40.6761 27.003 38.3869 27.003 36C27.003 33.613 27.9512 31.3239 29.639 29.636C31.3269 27.9482 33.616 27 36.003 27M51.753 16.5C50.7584 16.5 49.8046 16.8951 49.1013 17.5983C48.3981 18.3016 48.003 19.2554 48.003 20.25C48.003 21.2446 48.3981 22.1984 49.1013 22.9016C49.8046 23.6049 50.7584 24 51.753 24C52.7476 24 53.7014 23.6049 54.4046 22.9016C55.1079 22.1984 55.503 21.2446 55.503 20.25C55.503 19.2554 55.1079 18.3016 54.4046 17.5983C53.7014 16.8951 52.7476 16.5 51.753 16.5Z" fill="#322C2C"/>
</svg>
