<svg width="72" height="72" viewBox="0 0 72 72" fill="none" xmlns="http://www.w3.org/2000/svg">
<path d="M67.3801 18C65.0701 19.05 62.5801 19.74 60.0001 20.07C62.6401 18.48 64.6801 15.96 65.6401 12.93C63.1501 14.43 60.3901 15.48 57.4801 16.08C55.1101 13.5 51.7801 12 48.0001 12C40.9501 12 35.1901 17.76 35.1901 24.87C35.1901 25.89 35.3101 26.88 35.5201 27.81C24.8401 27.27 15.3301 22.14 9.00012 14.37C7.89012 16.26 7.26012 18.48 7.26012 20.82C7.26012 25.29 9.51012 29.25 12.9901 31.5C10.8601 31.5 8.88012 30.9 7.14012 30V30.09C7.14012 36.33 11.5801 41.55 17.4601 42.72C15.5726 43.2388 13.5902 43.3107 11.6701 42.93C12.4849 45.4874 14.0807 47.7252 16.2332 49.3288C18.3856 50.9324 20.9865 51.8211 23.6701 51.87C19.1211 55.4715 13.4821 57.4182 7.68012 57.39C6.66012 57.39 5.64012 57.33 4.62012 57.21C10.3201 60.87 17.1001 63 24.3601 63C48.0001 63 60.9901 43.38 60.9901 26.37C60.9901 25.8 60.9901 25.26 60.9601 24.69C63.4801 22.89 65.6401 20.61 67.3801 18Z" fill="#322C2C"/>
</svg>
